<svg width="1920" height="620" viewBox="0 0 1920 620" fill="none" xmlns="http://www.w3.org/2000/svg">
<path d="M-254.136 779.453L745.303 153" stroke="#1AC8FF" stroke-width="40"/>
<path d="M719.962 175.048L-207.831 756.593" stroke="#1993CF" stroke-width="40"/>
<path d="M-278 837.314L813.247 153.316" stroke="#1AC8FF" stroke-width="40"/>
<path d="M796.722 200.412L-239.44 849.883" stroke="#0EC1E2" stroke-width="40"/>
<path d="M-237.604 856.47L818 194.813" stroke="#0EC1E2" stroke-width="40"/>
<path d="M764.752 264.928L-162.321 846.021" stroke="#1993CF" stroke-width="40"/>
<path d="M1054.86 721.453L2054.3 95" stroke="#1AC8FF" stroke-width="40"/>
<path d="M2028.96 117.048L1101.17 698.593" stroke="#1993CF" stroke-width="40"/>
<path d="M1031 779.314L2122.25 95.3156" stroke="#1AC8FF" stroke-width="40"/>
<path d="M2105.72 142.412L1069.56 791.883" stroke="#0EC1E2" stroke-width="40"/>
<path d="M1071.4 827.47L2127 165.813" stroke="#1AC8FF" stroke-width="40"/>
<path d="M2073.75 205.928L1146.68 787.021" stroke="#1993CF" stroke-width="40"/>
<path d="M455.323 225L1860.71 757.832" stroke="#1993CF" stroke-width="40"/>
<path d="M1789.12 744.282L484.472 249.647" stroke="#1AC8FF" stroke-width="40"/>
<path d="M349.266 272.674L1883.76 854.451" stroke="#1993CF" stroke-width="40"/>
<path d="M1823.98 846.077L366.953 293.667" stroke="#0EC1E2" stroke-width="40"/>
<path d="M333 325.082L1817.37 887.857" stroke="#1993CF" stroke-width="40"/>
<path d="M1705.96 860.905L402.325 366.653" stroke="#1993CF" stroke-width="40"/>
<path d="M119 115.173C119 132.293 104.225 149.173 86 149.173C67.7746 149.173 44 132.293 44 115.173C44 98.0518 61 91.6726 86 83.6726C111 75.6726 119 98.0518 119 115.173Z" fill="#76CBF4"/>
<path d="M119 119.173C119 136.293 104.225 153.173 86 153.173C67.7746 153.173 44 136.293 44 119.173C44 102.052 61 95.6726 86 87.6726C111 79.6726 119 102.052 119 119.173Z" fill="#1993CF"/>
<path d="M959 287C959 304.121 944.225 321 926 321C907.775 321 884 304.121 884 287C884 269.879 901 263.5 926 255.5C951 247.5 959 269.879 959 287Z" fill="#1993CF"/>
<path d="M1748 99C1748 116.121 1712.73 149 1694.5 149C1676.27 149 1648.5 116.121 1648.5 99C1648.5 81.8792 1663.27 68 1681.5 68C1699.73 68 1748 81.8792 1748 99Z" fill="#0EC1E2"/>
<path d="M185 488.5C185 529.093 149.854 562 106.5 562C63.1456 562 20 519.093 20 478.5C20 437.907 103.146 410 146.5 410C189.854 410 185 447.907 185 488.5Z" fill="#1993CF"/>
<path d="M455.155 221.421C455.155 267.537 324.308 386.921 275.155 386.921C226.001 386.921 231.155 292.137 231.155 246.021C231.155 132 328.001 132 377.155 132C426.308 132 455.155 175.305 455.155 221.421Z" fill="#0EC1E2"/>
<path d="M1314 107.5C1314 133.181 1275.84 159.5 1248.5 159.5C1221.16 159.5 1215 133.181 1215 107.5C1215 81.8188 1237.16 41 1264.5 41C1291.84 41 1314 81.8188 1314 107.5Z" fill="#349ED1"/>
<path d="M1305.5 109.5C1305.5 135.181 1267.34 161.5 1240 161.5C1212.66 161.5 1206.5 135.181 1206.5 109.5C1206.5 83.8188 1228.66 43 1256 43C1283.34 43 1305.5 83.8188 1305.5 109.5Z" fill="#1993CF"/>
<path d="M1832 472C1832 489.121 1773.73 527 1755.5 527C1737.27 527 1715 489.121 1715 472C1715 454.879 1752.77 422 1771 422C1789.23 422 1832 454.879 1832 472Z" fill="#85CAEC"/>
<path d="M1830 463C1830 480.121 1771.73 518 1753.5 518C1735.27 518 1713 480.121 1713 463C1713 445.879 1750.77 413 1769 413C1787.23 413 1830 445.879 1830 463Z" fill="#1993CF"/>
<path d="M881.5 63C881.5 109.668 796.706 121 747 121C697.294 121 684 92.1681 684 45.5C684 -1.16806 724.294 -39 774 -39C823.706 -39 881.5 16.3319 881.5 63Z" fill="#0EC1E2"/>
<path d="M760 567.5C760 589.868 732.748 620 709 620C685.252 620 666 589.868 666 567.5C666 545.132 685.252 527 709 527C732.748 527 760 545.132 760 567.5Z" fill="#31BBFF"/>
<path d="M863.5 63C863.5 109.668 778.706 121 729 121C679.294 121 666 92.1681 666 45.5C666 -1.16806 706.294 -39 756 -39C805.706 -39 863.5 16.3319 863.5 63Z" fill="#2AC9E7"/>
<path d="M770 561.5C770 583.868 742.748 614 719 614C695.252 614 676 583.868 676 561.5C676 539.132 695.252 521 719 521C742.748 521 770 539.132 770 561.5Z" fill="#1993CF"/>
</svg>
