<svg width="500" height="500" viewBox="0 0 500 500" fill="none" xmlns="http://www.w3.org/2000/svg">
<path d="M-30 400H96L140 234H303L373 -37" stroke="#1191E8"/>
<path d="M-79 337H47L91 171H254L324 -100" stroke="#1191E8"/>
<path d="M-30 400H96L140 234H303L373 -37" stroke="#1191E8"/>
<path d="M-62 364H64L108 198H271L341 -73" stroke="#1191E8"/>
<path d="M-109 303H17L61 137H224L294 -134" stroke="#1191E8"/>
<path d="M-95 316H31L75 150H238L308 -121" stroke="#1191E8"/>
<path d="M-41 385H85L129 219H292L362 -52" stroke="#1191E8"/>
<path d="M29 475H155L199 309H362L432 38" stroke="#1191E8"/>
<path d="M-20 412H106L150 246H313L383 -25" stroke="#1191E8"/>
<path d="M29 475H155L199 309H362L432 38" stroke="#1191E8"/>
<path d="M-3 439H123L167 273H330L400 2" stroke="#1191E8"/>
<path d="M-50 378H76L120 212H283L353 -59" stroke="#1191E8"/>
<path d="M-36 391H90L134 225H297L367 -46" stroke="#1191E8"/>
<path d="M18 460H144L188 294H351L421 23" stroke="#1191E8"/>
<path d="M245 -21L263 42H428L466 203L513 210" stroke="#1191E8"/>
<path d="M280 -52L298 11H463L501 172L548 179" stroke="#1191E8"/>
<path d="M298 -85L316 -22H481L519 139L566 146" stroke="#1191E8"/>
<path d="M525 473H386L340 305H183L136 146H-198" stroke="#1191E8"/>
<path d="M367 614H343L297 446H140L93 287H-241" stroke="#1191E8"/>
<path d="M373 577H349L303 409H146L99 250H-235" stroke="#1191E8"/>
<path d="M383 537H359L313 369H156L109 210H-225" stroke="#1191E8"/>
<path d="M396 506H372L326 338H169L122 179H-212" stroke="#1191E8"/>
</svg>
