<svg width="226" height="229" viewBox="0 0 226 229" fill="none" xmlns="http://www.w3.org/2000/svg">
<circle cx="56" cy="49" r="3" fill="#E30611"/>
<circle cx="77" cy="183" r="3" fill="#E30611"/>
<circle cx="214" cy="217" r="3" fill="#E30611"/>
<circle cx="173" cy="164" r="3" fill="#E30611"/>
<circle cx="176" cy="150" r="3" fill="#E30611"/>
<circle cx="56" cy="76" r="3" fill="#E30611"/>
<circle cx="110" cy="55" r="3" fill="#E30611"/>
<circle cx="227" cy="161" r="3" fill="#E30611"/>
<path d="M69.5 -2L56 48.5M56 48.5V76.5M56 48.5L109.5 54.3364M56 48.5L172 164M56 48.5L176 150.5M56 48.5L76.5 183M56 76.5L76.5 183M56 76.5L72.5 -2L99 -7.5L111 54.5M56 76.5L111 54.5M56 76.5L172 164M56 76.5L176 150.5M76.5 183L104 232L146.5 234L172 164M76.5 183L109.5 54.3364M76.5 183L176 150.5M76.5 183L172 164M76.5 183L57.5 234L167.5 232.4M76.5 183L213 217.5M76.5 183L1 230.5M172 164L176 150.5M172 164L109.5 54.3364M172 164L213 217.5M172 164L229 193M172 164L228.783 161.654M176 150.5L230.5 63L232.5 18.5L111 54.5M176 150.5L109.5 54.3364M176 150.5L213 217.5M176 150.5L232.5 161.5L228.783 161.654M176 150.5L229 186M111 54.5L109.5 54.3364M109.5 54.3364L232.5 164V148.5L228.783 161.654M213 217.5L195 232L167.5 232.4M213 217.5H236.5L242 234L215.5 232L213 217.5ZM213 217.5L228.783 161.654M228.783 161.654L167.5 232.4" stroke="#E30611"/>
</svg>
